#VRML V2.0 utf8
# Visual-only 28 x 53 mm STM32 module proxy. VRML unit = 2.54 mm.
Transform {
  scale 0.393700787 0.393700787 0.393700787
  children [
    Transform { translation -3.23 -61.29 30.48 children [
      Shape { appearance Appearance { material Material { diffuseColor 0.025 0.19 0.16 } } geometry Box { size 28 53 1.2 } }
    ] }
    Transform { translation -3.23 -61.29 32.77 children [
      Shape { appearance Appearance { material Material { diffuseColor 0.08 0.08 0.09 } } geometry Box { size 12 12 0.65 } }
    ] }
    Transform { translation -3.23 -61.29 33.73 children [
      Shape { appearance Appearance { material Material { diffuseColor 0.42 0.43 0.44 } } geometry Box { size 3.4 0.3 0.03 } }
    ] }
    Transform { translation -3.23 -43.18 32.51 children [
      Shape { appearance Appearance { material Material { diffuseColor 0.72 0.69 0.58 } } geometry Box { size 4.2 2.8 0.45 } }
    ] }
    Transform { translation -3.23 -13.21 32.51 children [
      Shape { appearance Appearance { material Material { diffuseColor 0.83 0.72 0.28 } } geometry Box { size 7 1 0.08 } }
    ] }
    Transform { translation -3.23 -109.22 32.51 children [
      Shape { appearance Appearance { material Material { diffuseColor 0.83 0.72 0.28 } } geometry Box { size 7 1 0.08 } }
    ] }
    Transform { translation -3.23 -92.71 32.51 children [
      Shape { appearance Appearance { material Material { diffuseColor 0.05 0.05 0.05 } } geometry Box { size 5.5 3.5 0.6 } }
    ] }
  ]
}
